<svg height="64" width="108" xmlns="http://www.w3.org/2000/svg"><g fill="none" fill-rule="evenodd"><g fill="#fff"><path d="M4.37 52.35c.147-1.904 1.688-3.956 4.37-3.956 2.936 0 4.332 1.868 4.405 3.956zm4.332-7.509C4.186 44.841 0 48.577 0 54.22c0 6.044 4.296 9.56 9.143 9.56 4.296 0 7.123-2.527 8.078-5.64l-3.599-1.137c-.587 1.76-1.909 3.115-4.48 3.115-2.643 0-4.773-1.942-4.883-4.652h13.072c.036-.074.11-.66.11-1.356 0-5.642-3.231-9.268-8.739-9.268zM29.703 55.83c0 3.48-2.055 4.617-4.443 4.617-1.689 0-2.607-1.1-2.607-2.308 0-1.467 1.066-2.199 2.387-2.42l4.663-.695zm4.187-4.322c0-3.554-2.093-6.667-7.6-6.667-4.407 0-7.197 2.748-7.529 5.825l3.892.878c.184-1.795 1.432-3.223 3.672-3.223 2.35 0 3.378 1.208 3.378 2.71 0 .623-.294 1.137-1.321 1.283l-4.59.695c-3.048.44-5.398 2.198-5.398 5.386 0 2.82 2.314 5.385 6.059 5.385 2.9 0 4.663-1.465 5.508-2.82 0 1.427.146 2.16.183 2.27h3.966c-.037-.183-.22-1.246-.22-2.857zM40.424 48.248V45.39h-4.15v17.84h4.26v-8.498c0-3.335 1.506-5.239 4.81-5.239.442 0 .919.036 1.396.11v-4.322a6.084 6.084 0 0 0-1.138-.11c-2.35 0-4.333 1.135-5.178 3.077M57.717 44.878c-1.982 0-4.112.842-5.287 2.894V45.39h-4.15v17.84h4.26V52.937c0-2.344 1.285-4.213 3.708-4.213 2.68 0 3.672 1.758 3.672 3.956v10.55h4.259V51.948c0-3.92-2.093-7.07-6.462-7.07M70.09 52.35c.146-1.904 1.688-3.956 4.368-3.956 2.938 0 4.333 1.868 4.407 3.956zm4.332-7.509c-4.518 0-8.703 3.736-8.703 9.378 0 6.044 4.296 9.56 9.144 9.56 4.296 0 7.122-2.527 8.077-5.64l-3.599-1.137c-.586 1.76-1.908 3.115-4.478 3.115-2.644 0-4.773-1.942-4.884-4.652H83.05c.037-.074.11-.66.11-1.356 0-5.642-3.23-9.268-8.738-9.268zM108 50.788v-3.772h-3.746v-2.638l-.002-.002c-.001-3.538-2.876-6.407-6.425-6.407-3.547 0-6.425 2.87-6.425 6.41 0 .161.014.319.025.477-.125-.004-.244-.015-.374-.015-3.708 0-6.572 2.637-6.572 5.752 0 2.453 1.652 4.504 4.81 5.2l2.644.587c1.431.292 2.093 1.025 2.093 1.977 0 1.1-.918 2.053-2.68 2.053-2.278 0-3.488-1.429-3.636-3.041l-3.709 1.026c.22 2.015 2.204 5.385 7.38 5.385 4.554 0 6.757-3.005 6.757-5.715 0-2.638-1.762-4.688-5.14-5.42l-2.718-.55c-1.102-.221-1.798-.917-1.798-1.87 0-1.099 1.064-2.05 2.57-2.05.99 0 1.7.286 2.205.693a.549.549 0 0 0 .063.048l2.098-2.03a3.503 3.503 0 0 1-.887-1.365 3.476 3.476 0 0 1-.194-1.143 3.484 3.484 0 0 1 3.488-3.479 3.483 3.483 0 0 1 3.488 3.48 3.479 3.479 0 0 1-3.257 3.466v2.943h1.974v7.35c0 3.334 2.056 5.312 5.362 5.312 1.541 0 2.348-.293 2.606-.403V59.53a9.02 9.02 0 0 1-1.469.147c-1.578 0-2.277-.66-2.277-2.235v-6.654z"/></g><g fill="#1bb580"><path d="M4.37 15.35c.147-1.904 1.688-3.956 4.37-3.956 2.936 0 4.332 1.868 4.405 3.956zm4.332-7.509C4.186 7.841 0 11.577 0 17.22c0 6.044 4.296 9.56 9.143 9.56 4.296 0 7.123-2.527 8.078-5.64l-3.599-1.137c-.587 1.76-1.909 3.115-4.48 3.115-2.643 0-4.773-1.942-4.883-4.652h13.072c.036-.074.11-.66.11-1.356 0-5.642-3.231-9.268-8.739-9.268zM29.703 18.83c0 3.48-2.055 4.617-4.443 4.617-1.689 0-2.607-1.1-2.607-2.308 0-1.467 1.066-2.199 2.387-2.42l4.663-.695zm4.187-4.322c0-3.554-2.093-6.667-7.6-6.667-4.407 0-7.197 2.748-7.529 5.825l3.892.878c.184-1.795 1.432-3.223 3.672-3.223 2.35 0 3.378 1.208 3.378 2.71 0 .623-.294 1.137-1.321 1.283l-4.59.695c-3.048.44-5.398 2.198-5.398 5.386 0 2.82 2.314 5.385 6.059 5.385 2.9 0 4.663-1.465 5.508-2.82 0 1.427.146 2.16.183 2.27h3.966c-.037-.183-.22-1.246-.22-2.857zM40.424 11.248V8.39h-4.15v17.84h4.26v-8.498c0-3.335 1.506-5.239 4.81-5.239.442 0 .919.036 1.396.11V8.281a6.084 6.084 0 0 0-1.138-.11c-2.35 0-4.333 1.135-5.178 3.077M57.717 7.878c-1.982 0-4.112.842-5.287 2.894V8.39h-4.15v17.84h4.26V15.937c0-2.344 1.285-4.213 3.708-4.213 2.68 0 3.672 1.758 3.672 3.956v10.55h4.259V14.948c0-3.92-2.093-7.07-6.462-7.07M70.09 15.35c.146-1.904 1.688-3.956 4.368-3.956 2.938 0 4.333 1.868 4.407 3.956zm4.332-7.509c-4.518 0-8.703 3.736-8.703 9.378 0 6.044 4.296 9.56 9.144 9.56 4.296 0 7.122-2.527 8.077-5.64l-3.599-1.137c-.586 1.76-1.908 3.115-4.478 3.115-2.644 0-4.773-1.942-4.884-4.652H83.05c.037-.074.11-.66.11-1.356 0-5.642-3.23-9.268-8.738-9.268zM108 13.788v-3.772h-3.746V7.378l-.002-.002C104.251 3.838 101.376.97 97.827.97c-3.547 0-6.425 2.87-6.425 6.41 0 .161.014.319.025.477-.125-.004-.244-.015-.374-.015-3.708 0-6.572 2.637-6.572 5.752 0 2.453 1.652 4.504 4.81 5.2l2.644.587c1.431.292 2.093 1.025 2.093 1.977 0 1.1-.918 2.053-2.68 2.053-2.278 0-3.488-1.429-3.636-3.041l-3.709 1.026c.22 2.015 2.204 5.385 7.38 5.385 4.554 0 6.757-3.005 6.757-5.715 0-2.638-1.762-4.688-5.14-5.42l-2.718-.55c-1.102-.221-1.798-.917-1.798-1.87 0-1.099 1.064-2.05 2.57-2.05.99 0 1.7.286 2.205.693a.549.549 0 0 0 .063.048l2.098-2.03a3.503 3.503 0 0 1-.887-1.365 3.476 3.476 0 0 1-.194-1.143A3.484 3.484 0 0 1 97.827 3.9a3.483 3.483 0 0 1 3.488 3.48 3.479 3.479 0 0 1-3.257 3.466v2.943h1.974v7.35c0 3.334 2.056 5.312 5.362 5.312 1.541 0 2.348-.293 2.606-.403V22.53a9.02 9.02 0 0 1-1.469.147c-1.578 0-2.277-.66-2.277-2.235v-6.654z"/></g></g></svg>